<?xml version="1.0" encoding="iso-8859-1"?>
<!-- Generator: Adobe Illustrator 19.0.0, SVG Export Plug-In . SVG Version: 6.00 Build 0)  -->
<svg version="1.1" id="Capa_1" xmlns="http://www.w3.org/2000/svg" xmlns:xlink="http://www.w3.org/1999/xlink" x="0px" y="0px"
	 viewBox="0 0 512 512" style="enable-background:new 0 0 512 512;" xml:space="preserve">
<g>
	<g>
		<path d="M152.936,357.295c-5.916,0-10.742,4.826-10.742,10.744c0,5.916,4.826,10.742,10.742,10.742
			c5.918,0,10.743-4.826,10.743-10.742C163.679,362.122,158.853,357.295,152.936,357.295z"/>
	</g>
</g>
<g>
	<g>
		<path d="M220.36,227.077c-1.891-2.041-4.549-3.202-7.332-3.202H9.996c-2.783,0-5.44,1.161-7.332,3.202
			c-1.892,2.042-2.847,4.78-2.635,7.556l18.589,243.482c0.003,0.041,0.012,0.079,0.016,0.12c0.016,0.189,0.044,0.375,0.071,0.561
			c0.021,0.148,0.04,0.297,0.067,0.443c0.033,0.173,0.076,0.342,0.118,0.512c0.039,0.158,0.075,0.317,0.121,0.473
			c0.042,0.139,0.092,0.275,0.14,0.411c0.063,0.182,0.125,0.362,0.197,0.538c0.041,0.1,0.088,0.194,0.132,0.291
			c0.093,0.208,0.188,0.414,0.295,0.613c0.032,0.059,0.068,0.116,0.101,0.175c0.129,0.229,0.263,0.455,0.408,0.673
			c0.019,0.027,0.038,0.052,0.057,0.078c0.167,0.244,0.342,0.48,0.528,0.708c0.004,0.003,0.007,0.007,0.01,0.011
			c1.019,1.234,2.324,2.213,3.81,2.841c0.008,0.004,0.017,0.007,0.025,0.011c0.286,0.12,0.579,0.228,0.879,0.321
			c0.03,0.01,0.06,0.017,0.091,0.025c0.278,0.084,0.561,0.158,0.848,0.219c0.059,0.012,0.118,0.02,0.177,0.031
			c0.26,0.049,0.521,0.092,0.788,0.119c0.098,0.012,0.197,0.015,0.296,0.022c0.228,0.018,0.455,0.032,0.687,0.034
			c0.036,0.001,0.071,0.006,0.108,0.006h41.423c5.521,0,9.996-4.476,9.996-9.996s-4.475-9.996-9.996-9.996H37.847L25.71,308.372
			h171.605l-12.138,158.985h-33.921c-5.52,0-9.996,4.476-9.996,9.996s4.476,9.996,9.996,9.996h41.423c0.298,0,0.59-0.02,0.881-0.045
			c0.04,0.004,0.079,0.013,0.119,0.016c0.26,0.021,0.517,0.03,0.772,0.03c5.175-0.001,9.556-3.99,9.956-9.236l18.589-243.482
			C223.207,231.859,222.252,229.12,220.36,227.077z M198.842,288.38H24.183l-3.398-44.511h181.454L198.842,288.38z"/>
	</g>
</g>
<g>
	<g>
		<path d="M99.557,467.358h-0.476c-5.52,0-9.996,4.476-9.996,9.996s4.476,9.996,9.996,9.996h0.476c5.52,0,9.996-4.476,9.996-9.996
			S105.077,467.358,99.557,467.358z"/>
	</g>
</g>
<g>
	<g>
		<path d="M181.82,24.646c-43.57,0-79.017,35.447-79.017,79.018c0,43.571,35.447,79.018,79.017,79.018
			c43.571,0,79.018-35.447,79.018-79.018S225.391,24.646,181.82,24.646z M181.82,162.689c-32.546,0-59.024-26.478-59.024-59.025
			c0-32.547,26.478-59.025,59.024-59.025c32.547,0,59.025,26.478,59.025,59.025C240.845,136.211,214.367,162.689,181.82,162.689z"/>
	</g>
</g>
<g>
	<g>
		<path d="M185.546,64.329c-1.24-0.118-2.494-0.178-3.726-0.178c-18.297,0-34.086,12.418-38.398,30.199
			c-1.301,5.366,1.994,10.77,7.359,12.072c0.792,0.191,1.583,0.283,2.363,0.283c4.507,0,8.599-3.069,9.707-7.643
			c2.271-9.37,10.992-15.767,20.802-14.83c5.505,0.519,10.374-3.512,10.897-9.006C195.073,69.73,191.042,64.85,185.546,64.329z"/>
	</g>
</g>
<g>
	<g>
		<path d="M494.39,356.636c-5.083-2.148-10.95,0.231-13.098,5.316L441.2,456.817L252.16,186.729
			c-3.167-4.523-9.401-5.623-13.922-2.457c-4.522,3.166-5.623,9.398-2.457,13.922l199.402,284.893
			c0.037,0.054,0.082,0.1,0.121,0.152c0.169,0.232,0.348,0.457,0.538,0.675c0.071,0.083,0.142,0.166,0.216,0.246
			c0.206,0.221,0.423,0.432,0.65,0.635c0.057,0.052,0.11,0.108,0.169,0.158c0.276,0.237,0.568,0.46,0.874,0.667
			c0.104,0.07,0.212,0.129,0.316,0.195c0.204,0.127,0.41,0.252,0.625,0.366c0.146,0.077,0.293,0.144,0.441,0.213
			c0.117,0.056,0.228,0.118,0.349,0.169c0.075,0.032,0.152,0.053,0.228,0.083c0.147,0.058,0.293,0.11,0.441,0.161
			c0.222,0.076,0.444,0.143,0.667,0.201c0.123,0.033,0.245,0.066,0.369,0.095c0.279,0.063,0.559,0.11,0.838,0.149
			c0.079,0.011,0.156,0.026,0.235,0.036c0.37,0.041,0.74,0.067,1.108,0.067c0.014,0,0.026-0.003,0.04-0.003
			c0.46-0.001,0.921-0.035,1.378-0.1c0.014-0.002,0.027-0.003,0.041-0.005c0.461-0.067,0.918-0.17,1.369-0.304
			c0.014-0.004,0.026-0.007,0.04-0.011c0.427-0.128,0.848-0.289,1.26-0.477c0.038-0.018,0.077-0.033,0.115-0.051
			c0.378-0.178,0.746-0.383,1.107-0.612c0.067-0.042,0.134-0.085,0.2-0.128c0.062-0.041,0.125-0.077,0.186-0.12
			c0.295-0.206,0.573-0.427,0.839-0.658c0.057-0.049,0.107-0.104,0.162-0.155c0.275-0.25,0.532-0.515,0.773-0.789
			c0.074-0.084,0.147-0.168,0.219-0.255c0.281-0.343,0.543-0.696,0.772-1.067c0.015-0.024,0.026-0.05,0.041-0.073
			c0.229-0.378,0.427-0.771,0.603-1.171c0.02-0.046,0.048-0.085,0.067-0.131l47.129-111.512
			C501.856,364.649,499.475,358.784,494.39,356.636z"/>
	</g>
</g>
<g>
	<g>
		<path d="M505.886,329.414c-5.086-2.144-10.949,0.237-13.096,5.325l-0.185,0.438c-2.145,5.086,0.238,10.949,5.325,13.096
			c1.27,0.535,2.585,0.789,3.882,0.789c3.898,0,7.603-2.296,9.215-6.114l0.184-0.438
			C513.358,337.424,510.973,331.561,505.886,329.414z"/>
	</g>
</g>
<g>
</g>
<g>
</g>
<g>
</g>
<g>
</g>
<g>
</g>
<g>
</g>
<g>
</g>
<g>
</g>
<g>
</g>
<g>
</g>
<g>
</g>
<g>
</g>
<g>
</g>
<g>
</g>
<g>
</g>
</svg>
